<?xml version="1.0" encoding="UTF-8"?>
<svg width="309px" height="131px" viewBox="0 0 309 131" version="1.1" xmlns="http://www.w3.org/2000/svg" xmlns:xlink="http://www.w3.org/1999/xlink">
    <title>fort bend linc - greengray</title>
    <defs>
        <filter color-interpolation-filters="auto" id="filter-1">
            <feColorMatrix in="SourceGraphic" type="matrix" values="0 0 0 0 0.200000 0 0 0 0 0.200000 0 0 0 0 0.200000 0 0 0 1.000000 0"></feColorMatrix>
        </filter>
        <filter color-interpolation-filters="auto" id="filter-2">
            <feColorMatrix in="SourceGraphic" type="matrix" values="0 0 0 0 0.200000 0 0 0 0 0.200000 0 0 0 0 0.200000 0 0 0 1.000000 0"></feColorMatrix>
        </filter>
        <filter color-interpolation-filters="auto" id="filter-3">
            <feColorMatrix in="SourceGraphic" type="matrix" values="0 0 0 0 0.200000 0 0 0 0 0.200000 0 0 0 0 0.200000 0 0 0 1.000000 0"></feColorMatrix>
        </filter>
    </defs>
    <g id="Page-1" stroke="none" stroke-width="1" fill="none" fill-rule="evenodd">
        <g id="Final-Copy-3" transform="translate(-146.000000, -235.000000)">
            <g id="fort-bend-linc---green" transform="translate(145.707376, 235.935215)">
                <g id="linc---green" transform="translate(35.067311, 0.000000)">
                    <g id="linc---body" transform="translate(0.000000, 5.760000)" filter="url(#filter-1)">
                        <g>
                            <g id="Group" fill="#333333" fill-rule="nonzero">
                                <g id="l">
                                    <path d="M19.0040625,123.48 C20.9034375,123.48 22.7765625,123.353906 24.6234375,123.101719 C26.4703125,122.849531 28.1146875,122.470312 29.5565625,121.964062 L29.5565625,104.1525 C27.1096875,104.1525 25.0035937,103.504219 23.2382812,102.207656 C21.4729687,100.911094 20.5903125,98.28375 20.5903125,94.325625 L20.5903125,0 L0,0 L0,101.657812 C0,106.592812 0.84375,110.66625 2.53125,113.878125 C4.21875,117.09 6.49359375,119.493281 9.35578125,121.087969 C12.2179687,122.682656 15.4340625,123.48 19.0040625,123.48 Z"></path>
                                </g>
                            </g>
                            <g id="Group" transform="translate(41.802935, 34.740000)" fill="#333333" fill-rule="nonzero">
                                <g id="i">
                                    <polygon points="20.88 87.84 20.88 0 0 0 0 87.84"></polygon>
                                </g>
                            </g>
                            <g id="Group" transform="translate(80.028589, 32.726250)" fill="#333333" fill-rule="nonzero">
                                <g id="n">
                                    <path d="M20.8771875,89.85375 L20.8767236,32.08175 L21.1422656,31.7770312 C22.1688867,30.6228516 23.3004822,29.5250171 24.537052,28.4835278 L25.0734375,28.040625 C27.9684375,25.696875 31.1765625,23.8457812 34.6978125,22.4873437 C38.2190625,21.1289062 41.6746875,20.4496875 45.0646875,20.4496875 C48.6215625,20.4496875 51.631875,21.435 54.095625,23.405625 C56.559375,25.37625 57.79125,29.2678125 57.79125,35.0803125 L57.79125,35.0803125 L57.79125,89.85375 L78.67125,89.85375 L78.67125,37.0125 C78.67125,32.3325 78.395625,27.7842187 77.844375,23.3676562 C77.293125,18.9510937 76.1301562,14.990625 74.3554688,11.48625 C72.5807813,7.981875 69.875625,5.19140625 66.24,3.11484375 C62.604375,1.03828125 57.714375,0 51.57,0 C46.7475,0 42.075,0.74953125 37.5525,2.24859375 C33.03,3.74765625 28.7826563,5.85234375 24.8104687,8.56265625 C22.824375,9.9178125 20.9265234,11.3994141 19.1169141,13.0074609 L18.7477236,13.34075 L15.705,1.9434375 L0,1.9434375 L0,89.85375 L20.8771875,89.85375 Z"></path>
                                </g>
                            </g>
                            <g id="Group" transform="translate(167.516187, 30.743469)" fill="#333333" fill-rule="nonzero">
                                <g id="c">
                                    <path d="M27.3865141,3.6237765 C35.6210053,0.128442347 43.9016967,-0.838308536 52.2285882,0.72352385 C60.3473074,2.24631043 67.3302053,5.879697 73.1772818,11.6236836 L73.6248167,12.0696916 L58.9976419,27.3775061 L58.6243082,27.0062664 C55.2530757,23.7107901 51.5786438,21.6487069 47.6010124,20.8200166 C43.4760613,19.9606342 39.2578785,20.4459864 34.9464639,22.2760733 C28.9298141,24.8299897 24.7884321,29.0485083 22.522318,34.9316292 C20.2562038,40.8147501 20.7056079,47.4843552 23.87053,54.9404445 C27.0442436,62.4172451 31.5317884,67.3783627 37.3331645,69.8237971 C43.1345406,72.2692316 49.0435536,72.2149906 55.0602035,69.6610743 C59.3716181,67.8309874 62.6533283,65.1394439 64.9053341,61.5864438 C66.9071874,58.4281106 67.9779761,54.7314599 68.1177003,50.4964919 L89.2758496,50.4967947 C89.0959426,58.3598563 86.8322892,65.6197343 82.4848895,72.2764287 C77.8559942,79.3641464 71.4458753,84.6465145 63.2545328,88.1235331 C54.9699891,91.6401133 46.9957483,92.8933349 39.3318105,91.883198 C31.6678727,90.8730611 24.8119626,87.9107655 18.76408,82.9963112 C12.7161974,78.0818569 7.93396603,71.4823579 4.41738587,63.1978142 C0.909597166,54.9339819 -0.509074476,46.9250689 0.161370947,39.1710751 C0.831816369,31.4170813 3.46581566,24.4331782 8.06336882,18.2193656 C12.660922,12.005553 19.1019704,7.14035665 27.3865141,3.6237765 Z"></path>
                                </g>
                            </g>
                        </g>
                    </g>
                    <g id="linc---accents" transform="translate(39.102935, 0.000000)" filter="url(#filter-2)">
                        <g>
                            <g id="Group" transform="translate(0.000000, 0.000000)" fill="#333333" fill-rule="nonzero">
                                <g id="dot">
                                    <path d="M13.14,26.1 C16.98,26.1 20.1,24.9 22.5,22.5 C24.9,20.1 26.1,16.98 26.1,13.14 C26.1,9.3 24.9,6.15 22.5,3.69 C20.1,1.23 16.98,0 13.14,0 C9.06,0 5.85,1.23 3.51,3.69 C1.17,6.15 0,9.3 0,13.14 C0,16.98 1.17,20.1 3.51,22.5 C5.85,24.9 9.06,26.1 13.14,26.1 Z"></path>
                                </g>
                            </g>
                            <g id="Group" transform="translate(157.769918, 0.000000)" fill="#333333" fill-rule="nonzero">
                                <g id="link">
                                    <path d="M43.5087905,0.411678958 L44.124678,0.510815558 L44.720786,0.616639395 L45.3325702,0.735269575 C50.8150169,1.8455916 55.6607102,4.10784076 59.9311858,7.55168515 L60.4033191,7.93919856 L60.7704143,8.25179922 L62.5569359,9.94836881 L63.0171288,10.3929819 L63.4794899,10.8547039 C67.0006562,14.4311033 69.978881,18.8479118 72.4066309,24.1188826 L72.7201716,24.8112457 L73.0209856,25.4982767 L73.3147666,26.1928727 C75.5236867,31.5113938 76.7345597,36.675578 76.9590695,41.6931546 L76.9827606,42.3467903 L77.0333043,44.1852669 L77.0133487,44.9072251 C76.8621574,48.9785311 76.0345108,52.8846652 74.5294842,56.6109082 C73.8947625,58.2009317 73.1456137,59.7324652 72.2740437,61.2224104 L71.8929952,61.8584613 L71.5247855,62.4539536 L71.2081867,62.9485054 L70.8672587,63.4626862 C67.189843,68.9076722 62.2044801,73.0855882 55.8378392,76.035387 L55.2369176,76.3083339 L54.5569837,76.6063456 L53.8319534,76.9338643 L53.2557215,77.1853306 L52.6534201,77.4378206 C46.2283624,80.0736037 39.7860896,80.8713544 33.2398502,79.8472153 L32.625833,79.7458652 L31.9637744,79.6252863 L31.2376342,79.4832087 L30.5395238,79.3316458 C29.3785352,79.0668879 28.2307911,78.7414961 27.1052976,78.3574421 L26.4327437,78.119986 L25.7056916,77.8477078 L25.0844645,77.6013733 C21.7867151,76.2564377 18.7361157,74.4128392 15.9213546,72.0593335 L15.3338978,71.5581807 L14.0750717,70.3557708 L13.6135577,69.9091609 L13.150786,69.4462837 C12.0077746,68.2834946 10.9217123,67.0320546 9.89286287,65.6915034 C12.2808995,64.8670305 14.4780863,64.710606 16.6126806,65.1553222 C18.2538979,65.4972495 19.8507455,66.207021 21.4319213,67.3355441 L21.796543,67.6034292 C23.8715504,69.165016 26.0908564,70.4187009 28.4622075,71.3698977 C35.9422321,74.3702867 43.6912987,74.3278917 51.26205,71.2710201 L51.9741765,70.9749234 L52.1559158,70.8919781 C59.8454223,67.3068928 65.2613037,61.4827803 68.1095494,53.7177639 C69.173673,50.8167018 69.7601586,47.7849299 69.8688739,44.6540717 L69.8850577,43.9238699 L69.8843441,43.2849527 L69.8680911,42.4785943 C69.701083,37.6991382 68.457578,32.7747575 66.2037376,27.712549 L65.907205,27.0590757 C63.8732394,22.667792 61.4245363,18.9706246 58.509723,15.9478843 L58.0055597,15.4364446 L57.449348,14.9472339 L57.3146531,14.8168898 L57.0704027,14.5704729 C56.7698106,14.2728898 56.4780816,14.0049523 56.1452944,13.7228071 L55.723047,13.3746066 L55.4911518,13.1901293 L55.4911518,13.1901293 L54.9738373,12.7898955 C52.8728751,11.1879804 50.5999193,9.89216059 48.1696193,8.91351762 C40.6209319,5.87378178 32.8068875,5.93693626 25.1827177,9.0607348 L24.5807777,9.3136545 L24.4073283,9.39429668 C16.7648438,12.9581809 11.3502545,18.7922705 8.50858124,26.5717495 C8.20781891,27.3951285 7.94524182,28.2291439 7.72093434,29.0730723 C5.13773165,29.4694718 2.56263353,30.0719711 0,30.8796227 C0.723943897,26.3345963 2.37559646,22.0362455 4.97075073,17.9432671 C8.7608089,11.9657318 14.0060681,7.4391381 20.8191298,4.28734153 L21.4069487,4.02055261 L22.0867256,3.72334311 L22.785774,3.40666003 L23.3717222,3.15164789 L23.9798617,2.89649441 C30.2636173,0.315701236 36.53744,-0.535721638 42.8934347,0.323217168 L43.5087905,0.411678958 Z"></path>
                                </g>
                            </g>
                        </g>
                    </g>
                </g>
                <g id="Fort-Bend" transform="translate(0.000000, 6.841315)" filter="url(#filter-3)">
                    <g>
                        <path d="M20.9153521,117.98612 L13.0098468,117.986386 L13.0094865,110.737293 L9.33498083,110.737293 L9.33528112,117.986386 L4.63156793,117.986386 L4.63102741,109.105218 L0.956521739,109.105218 L0.956521739,122 L20.9153521,122 L20.9153521,117.98612 Z M21.2533114,101.302221 C21.2533114,99.743076 20.9380965,98.3779067 20.3076666,97.2067128 C19.6772367,96.0355189 18.7995958,95.1223739 17.674744,94.4672777 C16.5498922,93.8121816 15.2504892,93.4846335 13.776535,93.4846335 C12.2833473,93.4846335 10.9743275,93.8121816 9.84947573,94.4672777 C8.72462394,95.1223739 7.84393017,96.0355189 7.20739442,97.2067128 C6.57085867,98.3779067 6.25259079,99.743076 6.25259079,101.302221 C6.25259079,102.840301 6.57085867,104.196453 7.20739442,105.370679 C7.84393017,106.544905 8.72462394,107.458449 9.84947573,108.111311 C10.9743275,108.764173 12.2833473,109.090604 13.776535,109.090604 C15.2504892,109.090604 16.5498922,108.764173 17.674744,108.111311 C18.7995958,107.458449 19.6772367,106.544905 20.3076666,105.370679 C20.9380965,104.196453 21.2533114,102.840301 21.2533114,101.302221 Z M17.53118,101.299827 C17.53118,102.395856 17.1828408,103.287138 16.4861623,103.973673 C15.7894839,104.660207 14.8751316,105.003474 13.7431054,105.003474 C12.6107739,105.003474 11.6977191,104.660207 11.0039409,103.973673 C10.3101628,103.287138 9.96327367,102.395856 9.96327367,101.299827 C9.96327367,100.187201 10.3127577,99.2856258 11.0117259,98.5951018 C11.7106941,97.9045777 12.6281756,97.5593157 13.7641706,97.5593157 C14.8836798,97.5593157 15.791392,97.9045777 16.4873072,98.5951018 C17.1832224,99.2856258 17.53118,100.187201 17.53118,101.299827 Z M20.9153521,87.7988138 L11.1360489,87.7991529 L10.9948105,87.6519706 C10.8985751,87.5442442 10.8099115,87.4295514 10.7288197,87.3078923 L10.6128607,87.1201789 C10.2396049,86.4671573 10.038621,85.5470075 10.009909,84.3597296 L10.00632,84.0573449 L10.00632,83.0725463 L6.52781236,83.0725463 C6.43011863,83.2231945 6.35982493,83.4324901 6.31693127,83.7004332 C6.27403762,83.9683763 6.25259079,84.2633691 6.25259079,84.5854115 C6.25259079,85.2294963 6.40363447,85.855548 6.70572182,86.4635666 C7.00780917,87.0715853 7.36652836,87.6030031 7.78187938,88.0578202 L7.95771409,88.245795 L7.95771409,88.245795 L8.12836308,88.4189912 L6.59055006,88.8156891 L6.59055006,91.8126942 L20.9153521,91.8126942 L20.9153521,87.7988138 Z M6.59055006,81.3136937 L10.1281319,81.3136937 L10.1290027,78.9928269 L16.3066501,78.9922116 C17.9073907,78.9922116 19.0959246,78.5992947 19.8722518,77.8134609 L20.0129826,77.6615126 C20.783084,76.7743799 21.1681347,75.5598587 21.1681347,74.0179491 C21.1681347,73.5340875 21.1388266,73.1065595 21.0802103,72.7353649 C21.0215941,72.3641703 20.9419126,72.0145197 20.841166,71.6864131 L17.251837,71.6864131 C17.3104533,71.8827026 17.36304,72.1156168 17.4095971,72.3851557 C17.4561543,72.6546947 17.4794329,72.9512833 17.4794329,73.2749216 C17.4794329,73.77921 17.3389218,74.1891837 17.0578997,74.5048427 C16.7768775,74.8205017 16.3217621,74.9783312 15.6925534,74.9783312 L10.1290027,74.9784442 L10.1281319,71.6864131 L6.59055006,71.6864131 L6.59088788,74.9784442 L3.22103203,74.9783312 L3.22103203,78.2223739 L6.59055006,79.0271607 L6.59055006,81.3136937 Z M20.9153521,54.8443162 C20.9153521,52.5648049 20.4422244,50.8319518 19.495969,49.645757 C18.5497136,48.4595621 17.1532274,47.8664647 15.3065105,47.8664647 C14.2956856,47.8664647 13.408428,48.0890059 12.6447378,48.5340883 C11.8810475,48.9791707 11.285421,49.6214203 10.8578583,50.4608371 C10.8189889,50.5371477 10.7818864,50.6150423 10.7465506,50.6945209 L10.6555879,50.9152539 L10.581277,50.7825189 C10.2297982,50.1932446 9.77757454,49.7023436 9.22460613,49.3098159 L8.98145162,49.1476126 C8.23348395,48.6790712 7.37011555,48.4448005 6.39134643,48.4448005 C5.17994409,48.4448005 4.17110361,48.6884069 3.36482499,49.1756198 C2.55854637,49.6628326 1.95559284,50.4169512 1.5559644,51.4379756 C1.18963833,52.3739147 0.991211708,53.5584672 0.960684535,54.991633 L0.956521739,55.3886604 L0.956521739,62.6887139 L20.9153521,62.6887139 L20.9153521,54.8443162 Z M4.63445069,58.675791 L4.63377504,55.3082296 C4.63377504,54.4180648 4.83473411,53.7366371 5.23665225,53.2639465 C5.63857039,52.7912559 6.1764202,52.5549106 6.85020169,52.5549106 C7.57252476,52.5549106 8.11655676,52.788144 8.48229768,53.2546108 C8.81146452,53.6744309 8.99250627,54.27089 9.02542296,55.043988 L9.03090907,55.3082296 L9.03162976,58.675791 L4.63445069,58.675791 Z M12.3890912,58.675791 L12.3889786,54.7964407 C12.3889786,53.895105 12.5929143,53.1958835 13.0007856,52.6987765 C13.408657,52.2016694 14.0158846,51.9531158 14.8224685,51.9531158 C15.556698,51.9531158 16.1428605,52.209888 16.5809558,52.7234323 C16.9792243,53.1902908 17.1964617,53.8206909 17.2326679,54.6146326 L17.2380988,54.8577213 L17.2388646,58.675791 L12.3890912,58.675791 Z M21.1974428,39.273182 C21.1974428,37.6265846 20.8803198,36.2255884 20.2460737,35.0701935 C19.6606158,34.0036751 18.8431859,33.1468343 17.7937839,32.4996711 L17.5266006,32.3422485 L15.9925037,35.1329104 C16.6030895,35.560598 17.1133867,36.0679983 17.5233951,36.6551113 C17.9334035,37.2422243 18.1384077,38.0563469 18.1384077,39.097479 C18.1384077,40.2953236 17.8104467,41.2326457 17.1545249,41.9094454 C16.5995141,42.4821221 15.8668504,42.8125125 14.9565337,42.9006166 L14.8721137,42.9075851 L14.871926,31.8989216 C14.7727821,31.877617 14.6538467,31.8603519 14.5151197,31.8471263 L14.3697955,31.8352472 C14.1672336,31.8212037 13.9565052,31.814182 13.7376101,31.814182 C12.2926587,31.814182 11.0095889,32.1205851 9.88840058,32.7333912 C8.76721231,33.3461974 7.88094694,34.2099509 7.22960448,35.3246517 C6.57826202,36.4393525 6.25259079,37.7555293 6.25259079,39.273182 C6.25259079,40.7547686 6.57085867,42.0549071 7.20739442,43.1735975 C7.84393017,44.2922879 8.72462394,45.1619461 9.84947573,45.7825719 C10.9743275,46.4031977 12.2815155,46.7135106 13.7710397,46.7135106 C15.2709439,46.7135106 16.5777502,46.4031977 17.6914588,45.7825719 C18.8051674,45.1619461 19.6679252,44.2922879 20.2797323,43.1735975 C20.8915393,42.0549071 21.1974428,40.7547686 21.1974428,39.273182 Z M12.0047224,35.717661 L12.0047224,42.8442953 L11.9318494,42.8300725 C11.344184,42.7039759 10.8373038,42.4517826 10.4112088,42.0734926 L10.25521,41.9257231 C9.59562466,41.2597751 9.26583198,40.3677751 9.26583198,39.249723 C9.26583198,37.9998538 9.65103533,37.0725855 10.421442,36.4679182 C10.8362764,36.1423281 11.3145995,35.9043968 11.8564114,35.7541245 L12.0047224,35.717661 Z M20.9153521,26.0816725 L11.6876182,26.0825397 L11.512968,25.904313 C11.4381774,25.8234928 11.3652704,25.7400331 11.294247,25.6539338 L11.086828,25.3877174 C10.7505478,24.9308257 10.4871563,24.4376285 10.2966535,23.9081256 C10.1061508,23.3786228 10.0108994,22.8612484 10.0108994,22.3560025 C10.0108994,21.7961786 10.1568294,21.3348983 10.4486894,20.9721617 C10.7162278,20.6396532 11.2314467,20.4595444 11.9943462,20.4318354 L12.2085505,20.4280569 L20.9153521,20.4280569 L20.9153521,16.4141765 L12.2410642,16.4141765 C11.4790531,16.4141765 10.7403205,16.4667597 10.0248665,16.5719262 C9.30941254,16.6770927 8.66906063,16.8883033 8.10381078,17.2055582 C7.53856092,17.5228131 7.08871179,17.9937482 6.75426339,18.6183637 C6.41981499,19.2429791 6.25259079,20.0707462 6.25259079,21.1016649 C6.25259079,21.9452309 6.38363778,22.7585555 6.64573176,23.5416388 C6.90782573,24.3247221 7.26501846,25.055302 7.71730993,25.7333784 C7.86807375,25.9594039 8.02635966,26.1777958 8.19216764,26.3885544 L8.34457053,26.5737893 L6.59055006,27.0985478 L6.59055006,30.0955529 L20.9153521,30.0955529 L20.9153521,26.0816725 Z M21.2533114,8.0603161 C21.2533114,6.74342119 20.9444313,5.59233502 20.326671,4.60705761 C20.0692709,4.19652535 19.7676405,3.82343737 19.4217796,3.48779368 L19.3913298,3.45994621 L20.9153521,3.00849527 L20.9153521,0 L0.956521739,0 L0.956521739,4.01388039 L7.52586499,4.01448556 L7.45332695,4.10526936 C7.39687956,4.18101015 7.34226552,4.25826256 7.28948483,4.33702659 L7.13664278,4.57785356 C6.54727479,5.55930094 6.25259079,6.71230212 6.25259079,8.03685712 C6.25259079,9.38981823 6.56780574,10.5891788 7.19823563,11.6349389 C7.82866553,12.6806991 8.70630637,13.4953802 9.83115816,14.0789823 C10.9560099,14.6625844 12.2572447,14.9543855 13.7348625,14.9543855 C15.2048479,14.9543855 16.5071512,14.6644994 17.6417724,14.0847273 C18.7763936,13.5049553 19.661972,12.694184 20.2985078,11.6524135 C20.9350435,10.610643 21.2533114,9.41327722 21.2533114,8.0603161 Z M17.7120661,7.34314139 C17.7120661,8.3750176 17.3438065,9.22041882 16.6072873,9.87934503 C15.8707681,10.5382712 14.9132932,10.8677344 13.7348625,10.8677344 C12.5686435,10.8677344 11.618343,10.5382712 10.8839608,9.87934503 C10.1495787,9.22041882 9.78238761,8.3750176 9.78238761,7.34314139 C9.78238761,6.30328592 10.1495787,5.45509197 10.8839608,4.79855953 C11.618343,4.14202709 12.5747494,3.81376087 13.7531801,3.81376087 C14.9313055,3.81376087 15.8856512,4.14202709 16.6162171,4.79855953 C17.3467831,5.45509197 17.7120661,6.30328592 17.7120661,7.34314139 Z" fill="#333333" fill-rule="nonzero"></path>
                    </g>
                </g>
            </g>
        </g>
    </g>
</svg>