<?xml version="1.0" encoding="UTF-8"?>
<svg width="350px" height="350px" viewBox="0 0 350 350" version="1.1" xmlns="http://www.w3.org/2000/svg" xmlns:xlink="http://www.w3.org/1999/xlink">
    <title>linc - background - transparent</title>
    <g id="Page-1" stroke="none" stroke-width="1" fill="none" fill-rule="evenodd">
        <g id="Final-Copy-6" transform="translate(-125.000000, -125.000000)" fill="#4EB872">
            <path d="M300,125 C396.649831,125 475,203.350169 475,300 C475,396.649831 396.649831,475 300,475 C203.350169,475 125,396.649831 125,300 C125,203.350169 203.350169,125 300,125 Z M189.637234,241.14 L169.046922,241.14 L169.046922,342.797812 L169.050972,343.385877 C169.115772,348.057309 169.958172,351.934725 171.578172,355.018125 C173.265672,358.23 175.540515,360.633281 178.402703,362.227969 C181.26489,363.822656 184.480984,364.62 188.050984,364.62 C189.950359,364.62 191.823484,364.493906 193.670359,364.241719 C195.517234,363.989531 197.161609,363.610312 198.603484,363.104062 L198.603484,363.104062 L198.603484,345.2925 L198.198827,345.286497 C195.92365,345.218468 193.952442,344.572187 192.285203,343.347656 C190.51989,342.051094 189.637234,339.42375 189.637234,335.465625 L189.637234,335.465625 L189.637234,241.14 Z M388.791697,272.606993 C380.464805,271.04516 372.184114,272.011911 363.949623,275.507245 C355.665079,279.023826 349.224031,283.889022 344.626477,290.102835 C340.028924,296.316647 337.394925,303.30055 336.72448,311.054544 C336.054034,318.808538 337.472706,326.817451 340.980494,335.081283 C344.497075,343.365827 349.279306,349.965326 355.327189,354.87978 C361.375071,359.794234 368.230981,362.75653 375.894919,363.766667 C383.558857,364.776804 391.533098,363.523582 399.817641,360.007002 C408.008984,356.529983 414.419103,351.247615 419.047998,344.159898 C423.395398,337.503203 425.659051,330.243325 425.838958,322.380264 L425.838958,322.380264 L404.680809,322.379961 C404.541085,326.614929 403.470296,330.31158 401.468443,333.469913 C399.216437,337.022913 395.934727,339.714456 391.623312,341.544543 C385.606662,344.09846 379.697649,344.152701 373.896273,341.707266 C368.094897,339.261832 363.607352,334.300714 360.433639,326.823913 C357.268716,319.367824 356.819312,312.698219 359.085427,306.815098 C361.351541,300.931977 365.492923,296.713459 371.509572,294.159542 C375.820987,292.329455 380.03917,291.844103 384.164121,292.703486 C388.141752,293.532176 391.816184,295.594259 395.187417,298.889735 L395.187417,298.889735 L395.56075,299.260975 L410.187925,283.953161 L409.74039,283.507153 C403.893314,277.763166 396.910416,274.129779 388.791697,272.606993 Z M231.729856,275.88 L210.849856,275.88 L210.849856,363.72 L231.729856,363.72 L231.729856,275.88 Z M300.64551,273.86625 C295.82301,273.86625 291.15051,274.615781 286.62801,276.114844 C282.10551,277.613906 277.858167,279.718594 273.885979,282.428906 C271.899885,283.784063 270.002034,285.265664 268.192424,286.873711 L268.192424,286.873711 L267.823234,287.207 L264.78051,275.809687 L249.07551,275.809687 L249.07551,363.72 L269.952698,363.72 L269.952234,305.948 L270.217776,305.643281 L270.664183,305.152083 C271.569852,304.176584 272.552645,303.242483 273.612562,302.349778 L273.612562,302.349778 L274.148948,301.906875 L274.69543,301.473195 C277.446187,299.333663 280.472151,297.627129 283.773323,296.353594 C287.294573,294.995156 290.750198,294.315938 294.140198,294.315938 C297.697073,294.315938 300.707385,295.30125 303.171135,297.271875 C305.568298,299.18924 306.799273,302.925111 306.864061,308.479488 L306.864061,308.479488 L306.86676,308.946563 L306.86676,363.72 L327.74676,363.72 L327.74676,310.87875 L327.739927,309.605652 C327.694369,305.372878 327.421022,301.248963 326.919885,297.233906 C326.368635,292.817344 325.205667,288.856875 323.430979,285.3525 C321.656292,281.848125 318.951135,279.057656 315.31551,276.981094 C311.679885,274.904531 306.789885,273.86625 300.64551,273.86625 Z M408.813209,235.703217 C402.457214,234.844278 396.183392,235.695701 389.899636,238.276494 L389.899636,238.276494 L389.291496,238.531648 L388.705548,238.78666 L388.0065,239.103343 L387.326723,239.400553 L386.738904,239.667342 C379.925842,242.819138 374.680583,247.345732 370.890525,253.323267 C368.295371,257.416246 366.643718,261.714596 365.919774,266.259623 C368.482408,265.451971 371.057506,264.849472 373.640709,264.453072 C373.865016,263.609144 374.127593,262.775128 374.428355,261.951749 C377.270029,254.172271 382.684618,248.338181 390.327102,244.774297 L390.327102,244.774297 L390.500552,244.693654 L391.102492,244.440735 C398.726662,241.316936 406.540706,241.253782 414.089394,244.293518 C416.519693,245.272161 418.792649,246.56798 420.893612,248.169895 L420.893612,248.169895 L421.410926,248.570129 L421.642821,248.754607 L422.065069,249.102807 C422.397856,249.384952 422.689585,249.65289 422.990177,249.950473 L422.990177,249.950473 L423.234427,250.19689 L423.369122,250.327234 L423.925334,250.816445 L424.429497,251.327884 C427.344311,254.350625 429.793014,258.047792 431.826979,262.439076 L431.826979,262.439076 L432.123512,263.092549 C434.377352,268.154757 435.620857,273.079138 435.787865,277.858594 L435.787865,277.858594 L435.804118,278.664953 L435.804832,279.30387 L435.788648,280.034072 C435.679933,283.16493 435.093447,286.196702 434.029324,289.097764 C431.181078,296.86278 425.765196,302.686893 418.07569,306.271978 L418.07569,306.271978 L417.893951,306.354923 L417.181824,306.65102 C409.611073,309.707892 401.862006,309.750287 394.381982,306.749898 C392.010631,305.798701 389.791325,304.545016 387.716317,302.983429 L387.716317,302.983429 L387.351696,302.715544 C385.77052,301.587021 384.173672,300.87725 382.532455,300.535322 C380.397861,300.090606 378.200674,300.24703 375.812637,301.071503 C376.841486,302.412055 377.927549,303.663495 379.07056,304.826284 L379.07056,304.826284 L379.533332,305.289161 L379.994846,305.735771 L381.253672,306.938181 L381.841129,307.439333 C384.65589,309.792839 387.706489,311.636438 391.004239,312.981373 L391.004239,312.981373 L391.625466,313.227708 L392.352518,313.499986 L393.025072,313.737442 C394.150565,314.121496 395.298309,314.446888 396.459298,314.711646 L396.459298,314.711646 L397.157408,314.863209 L397.883549,315.005286 L398.545607,315.125865 L399.159624,315.227215 C405.705864,316.251354 412.148137,315.453604 418.573194,312.817821 L418.573194,312.817821 L419.175496,312.565331 L419.751728,312.313864 L420.476758,311.986346 L421.156692,311.688334 L421.757613,311.415387 C428.124254,308.465588 433.109617,304.287672 436.787033,298.842686 L436.787033,298.842686 L437.127961,298.328505 L437.44456,297.833954 L437.812769,297.238461 L438.193818,296.60241 C439.065388,295.112465 439.814537,293.580932 440.449258,291.990908 C441.954285,288.264665 442.781932,284.358531 442.933123,280.287225 L442.933123,280.287225 L442.953078,279.565267 L442.902535,277.72679 L442.878844,277.073155 C442.654334,272.055578 441.443461,266.891394 439.234541,261.572873 L439.234541,261.572873 L438.94076,260.878277 L438.639946,260.191246 L438.326405,259.498883 C435.898655,254.227912 432.92043,249.811103 429.399264,246.234704 L429.399264,246.234704 L428.936903,245.772982 L428.47671,245.328369 L426.690188,243.631799 L426.323093,243.319199 L425.85096,242.931685 C421.580484,239.487841 416.734791,237.225592 411.252344,236.11527 L411.252344,236.11527 L410.64056,235.996639 L410.044452,235.890816 L409.428565,235.791679 Z M221.289856,235.38 C217.209856,235.38 213.999856,236.61 211.659856,239.07 C209.319856,241.53 208.149856,244.68 208.149856,248.52 C208.149856,252.36 209.319856,255.48 211.659856,257.88 C213.999856,260.28 217.209856,261.48 221.289856,261.48 C225.129856,261.48 228.249856,260.28 230.649856,257.88 C233.049856,255.48 234.249856,252.36 234.249856,248.52 C234.249856,244.68 233.049856,241.53 230.649856,239.07 C228.249856,236.61 225.129856,235.38 221.289856,235.38 Z" id="linc---background---transparent"></path>
        </g>
    </g>
</svg>