<?xml version="1.0" encoding="UTF-8"?>
<svg width="320px" height="150px" viewBox="0 0 320 150" version="1.1" xmlns="http://www.w3.org/2000/svg" xmlns:xlink="http://www.w3.org/1999/xlink">
    <title>linc--fort-bend--colors</title>
    <g id="linc--fort-bend--colors" stroke="none" stroke-width="1" fill="none" fill-rule="evenodd">
        <path d="M26.3816965,135.327435 L18.4761913,135.327701 L18.4758309,128.078608 L14.8013252,128.078608 L14.8016255,135.327701 L10.0979123,135.327701 L10.0973718,126.446533 L6.42286616,126.446533 L6.42286616,139.341315 L26.3816965,139.341315 L26.3816965,135.327435 Z M26.7196558,118.643536 C26.7196558,117.084391 26.4044409,115.719222 25.774011,114.548028 C25.1435811,113.376834 24.2659402,112.463689 23.1410885,111.808593 C22.0162367,111.153496 20.7168336,110.825948 19.2428794,110.825948 C17.7496917,110.825948 16.4406719,111.153496 15.3158201,111.808593 C14.1909684,112.463689 13.3102746,113.376834 12.6737388,114.548028 C12.0372031,115.719222 11.7189352,117.084391 11.7189352,118.643536 C11.7189352,120.181615 12.0372031,121.537768 12.6737388,122.711994 C13.3102746,123.88622 14.1909684,124.799764 15.3158201,125.452626 C16.4406719,126.105488 17.7496917,126.431919 19.2428794,126.431919 C20.7168336,126.431919 22.0162367,126.105488 23.1410885,125.452626 C24.2659402,124.799764 25.1435811,123.88622 25.774011,122.711994 C26.4044409,121.537768 26.7196558,120.181615 26.7196558,118.643536 Z M22.9975245,118.641142 C22.9975245,119.737171 22.6491852,120.628453 21.9525068,121.314988 C21.2558283,122.001522 20.341476,122.344789 19.2094498,122.344789 C18.0771184,122.344789 17.1640635,122.001522 16.4702854,121.314988 C15.7765072,120.628453 15.4296181,119.737171 15.4296181,118.641142 C15.4296181,117.528516 15.7791022,116.626941 16.4780703,115.936417 C17.1770385,115.245893 18.09452,114.900631 19.230515,114.900631 C20.3500242,114.900631 21.2577364,115.245893 21.9536516,115.936417 C22.6495668,116.626941 22.9975245,117.528516 22.9975245,118.641142 Z M26.3816965,105.140129 L16.6023934,105.140468 L16.4611549,104.993286 C16.3649196,104.885559 16.2762559,104.770866 16.1951641,104.649207 L16.0792051,104.461494 C15.7059493,103.808472 15.5049654,102.888322 15.4762534,101.701045 L15.4726644,101.39866 L15.4726644,100.413861 L11.9941568,100.413861 C11.896463,100.564509 11.8261693,100.773805 11.7832757,101.041748 C11.740382,101.309691 11.7189352,101.604684 11.7189352,101.926726 C11.7189352,102.570811 11.8699789,103.196863 12.1720662,103.804882 C12.4741536,104.4129 12.8328728,104.944318 13.2482238,105.399135 L13.4240585,105.58711 L13.4240585,105.58711 L13.5947075,105.760306 L12.0568945,106.157004 L12.0568945,109.154009 L26.3816965,109.154009 L26.3816965,105.140129 Z M12.0568945,98.6550086 L15.5944763,98.6550086 L15.5953471,96.3341418 L21.7729945,96.3335265 C23.3737351,96.3335265 24.562269,95.9406096 25.3385962,95.1547758 L25.479327,95.0028275 C26.2494284,94.1156948 26.6344791,92.9011737 26.6344791,91.359264 C26.6344791,90.8754024 26.605171,90.4478744 26.5465547,90.0766798 C26.4879385,89.7054852 26.408257,89.3558346 26.3075104,89.027728 L22.7181814,89.027728 C22.7767977,89.2240175 22.8293844,89.4569317 22.8759415,89.7264707 C22.9224987,89.9960096 22.9457773,90.2925982 22.9457773,90.6162365 C22.9457773,91.1205249 22.8052662,91.5304986 22.5242441,91.8461576 C22.243222,92.1618166 21.7881065,92.3196461 21.1588978,92.3196461 L15.5953471,92.3197591 L15.5944763,89.027728 L12.0568945,89.027728 L12.0572323,92.3197591 L8.68737644,92.3196461 L8.68737644,95.5636888 L12.0568945,96.3684756 L12.0568945,98.6550086 Z M26.3816965,72.1856311 C26.3816965,69.9061198 25.9085688,68.1732668 24.9623134,66.9870719 C24.016058,65.8008771 22.6195718,65.2077796 20.7728549,65.2077796 C19.76203,65.2077796 18.8747724,65.4303208 18.1110822,65.8754032 C17.3473919,66.3204856 16.7517654,66.9627352 16.3242027,67.802152 C16.2853333,67.8784626 16.2482308,67.9563572 16.212895,68.0358358 L16.1219324,68.2565688 L16.0476214,68.1238338 C15.6961426,67.5345596 15.243919,67.0436586 14.6909505,66.6511308 L14.447796,66.4889275 C13.6998284,66.0203861 12.83646,65.7861154 11.8576908,65.7861154 C10.6462885,65.7861154 9.63744803,66.0297219 8.83116941,66.5169347 C8.02489079,67.0041475 7.42193726,67.7582661 7.02230882,68.7792906 C6.65598275,69.7152296 6.45755612,70.8997821 6.42702895,72.3329479 L6.42286616,72.7299753 L6.42286616,80.0300288 L26.3816965,80.0300288 L26.3816965,72.1856311 Z M10.1007951,76.0171059 L10.1001195,72.6495445 C10.1001195,71.7593797 10.3010785,71.077952 10.7029967,70.6052614 C11.1049148,70.1325708 11.6427646,69.8962256 12.3165461,69.8962256 C13.0388692,69.8962256 13.5829012,70.1294589 13.9486421,70.5959257 C14.2778089,71.0157458 14.4588507,71.6122049 14.4917674,72.385303 L14.4972535,72.6495445 L14.4979742,76.0171059 L10.1007951,76.0171059 Z M17.8554356,76.0171059 L17.855323,72.1377556 C17.855323,71.2364199 18.0592587,70.5371985 18.4671301,70.0400914 C18.8750014,69.5429843 19.482229,69.2944307 20.288813,69.2944307 C21.0230424,69.2944307 21.6092049,69.5512029 22.0473002,70.0647472 C22.4455687,70.5316057 22.6628061,71.1620058 22.6990123,71.9559475 L22.7044432,72.1990362 L22.705209,76.0171059 L17.8554356,76.0171059 Z M26.6637872,56.6144969 C26.6637872,54.9678995 26.3466642,53.5669034 25.7124181,52.4115084 C25.1269602,51.34499 24.3095303,50.4881492 23.2601283,49.840986 L22.9929451,49.6835635 L21.4588481,52.4742253 C22.069434,52.9019129 22.5797311,53.4093132 22.9897395,53.9964262 C23.3997479,54.5835392 23.6047521,55.3976618 23.6047521,56.4387939 C23.6047521,57.6366385 23.2767912,58.5739606 22.6208693,59.2507603 C22.0658585,59.823437 21.3331948,60.1538274 20.4228781,60.2419315 L20.3384581,60.2489 L20.3382704,49.2402365 C20.2391265,49.2189319 20.1201911,49.2016668 19.9814641,49.1884412 L19.8361399,49.1765621 C19.633578,49.1625186 19.4228496,49.1554969 19.2039545,49.1554969 C17.7590031,49.1554969 16.4759333,49.4619 15.354745,50.0747061 C14.2335567,50.6875123 13.3472914,51.5512658 12.6959489,52.6659666 C12.0446064,53.7806674 11.7189352,55.0968442 11.7189352,56.6144969 C11.7189352,58.0960835 12.0372031,59.396222 12.6737388,60.5149124 C13.3102746,61.6336029 14.1909684,62.503261 15.3158201,63.1238868 C16.4406719,63.7445126 17.7478599,64.0548256 19.2373841,64.0548256 C20.7372883,64.0548256 22.0440946,63.7445126 23.1578032,63.1238868 C24.2715118,62.503261 25.1342697,61.6336029 25.7460767,60.5149124 C26.3578837,59.396222 26.6637872,58.0960835 26.6637872,56.6144969 Z M17.4710668,53.0589759 L17.4710668,60.1856102 L17.3981938,60.1713874 C16.8105284,60.0452908 16.3036483,59.7930975 15.8775533,59.4148075 L15.7215544,59.267038 C15.0619691,58.6010901 14.7321764,57.70909 14.7321764,56.591038 C14.7321764,55.3411687 15.1173797,54.4139004 15.8877864,53.8092331 C16.3026208,53.483643 16.7809439,53.2457118 17.3227558,53.0954394 L17.4710668,53.0589759 Z M26.3816965,43.4229874 L17.1539626,43.4238547 L16.9793125,43.2456279 C16.9045218,43.1648077 16.8316148,43.081348 16.7605914,42.9952487 L16.5531724,42.7290323 C16.2168922,42.2721406 15.9535008,41.7789434 15.762998,41.2494406 C15.5724952,40.7199377 15.4772438,40.2025634 15.4772438,39.6973174 C15.4772438,39.1374935 15.6231738,38.6762132 15.9150338,38.3134767 C16.1825722,37.9809681 16.6977911,37.8008593 17.4606906,37.7731503 L17.6748949,37.7693718 L26.3816965,37.7693718 L26.3816965,33.7554914 L17.7074086,33.7554914 C16.9453975,33.7554914 16.2066649,33.8080746 15.4912109,33.9132411 C14.775757,34.0184076 14.135405,34.2296183 13.5701552,34.5468731 C13.0049053,34.864128 12.5550562,35.3350631 12.2206078,35.9596786 C11.8861594,36.584294 11.7189352,37.4120611 11.7189352,38.4429798 C11.7189352,39.2865458 11.8499822,40.0998705 12.1120762,40.8829538 C12.3741702,41.6660371 12.7313629,42.3966169 13.1836543,43.0746933 C13.3344182,43.3007188 13.4927041,43.5191108 13.6585121,43.7298693 L13.810915,43.9151042 L12.0568945,44.4398627 L12.0568945,47.4368678 L26.3816965,47.4368678 L26.3816965,43.4229874 Z M26.7196558,25.401631 C26.7196558,24.0847361 26.4107757,22.9336499 25.7930155,21.9483725 C25.5356154,21.5378403 25.2339849,21.1647523 24.888124,20.8291086 L24.8576743,20.8012611 L26.3816965,20.3498102 L26.3816965,17.3413149 L6.42286616,17.3413149 L6.42286616,21.3551953 L12.9922094,21.3558005 L12.9196714,21.4465843 C12.863224,21.5223251 12.8086099,21.5995775 12.7558292,21.6783415 L12.6029872,21.9191685 C12.0136192,22.9006159 11.7189352,24.053617 11.7189352,25.378172 C11.7189352,26.7311331 12.0341502,27.9304938 12.66458,28.9762539 C13.2950099,30.022014 14.1726508,30.8366951 15.2975026,31.4202972 C16.4223544,32.0038993 17.7235891,32.2957004 19.2012069,32.2957004 C20.6711924,32.2957004 21.9734957,32.0058143 23.1081168,31.4260423 C24.242738,30.8462702 25.1283164,30.0354989 25.7648522,28.9937284 C26.4013879,27.9519579 26.7196558,26.7545921 26.7196558,25.401631 Z M23.1784105,24.6844563 C23.1784105,25.7163325 22.8101509,26.5617337 22.0736317,27.22066 C21.3371125,27.8795862 20.3796376,28.2090493 19.2012069,28.2090493 C18.0349879,28.2090493 17.0846874,27.8795862 16.3503052,27.22066 C15.6159231,26.5617337 15.248732,25.7163325 15.248732,24.6844563 C15.248732,23.6446008 15.6159231,22.7964069 16.3503052,22.1398745 C17.0846874,21.483342 18.0410938,21.1550758 19.2195245,21.1550758 C20.3976499,21.1550758 21.3519956,21.483342 22.0825616,22.1398745 C22.8131275,22.7964069 23.1784105,23.6446008 23.1784105,24.6844563 Z" id="Fort-Bend" fill="#2F513A" fill-rule="nonzero"></path>
        <path d="M280.915299,10.911679 L281.531186,11.0108156 L282.127294,11.1166394 L282.739078,11.2352696 C288.221525,12.3455916 293.067218,14.6078408 297.337694,18.0516851 L297.809827,18.4391986 L298.176923,18.7517992 L299.963444,20.4483688 L300.423637,20.8929819 L300.885998,21.3547039 C304.407164,24.9311033 307.385389,29.3479118 309.813139,34.6188826 L310.12668,35.3112457 L310.427494,35.9982767 L310.721275,36.6928727 C312.930195,42.0113938 314.141068,47.175578 314.365578,52.1931546 L314.389269,52.8467903 L314.439813,54.6852669 L314.419857,55.4072251 C314.268666,59.4785311 313.441019,63.3846652 311.935992,67.1109082 C311.301271,68.7009317 310.552122,70.2324652 309.680552,71.7224104 L309.299503,72.3584613 L308.931294,72.9539536 L308.614695,73.4485054 L308.273767,73.9626862 C304.596351,79.4076722 299.610988,83.5855882 293.244347,86.535387 L292.643426,86.8083339 L291.963492,87.1063456 L291.238462,87.4338643 L290.66223,87.6853306 L290.059928,87.9378206 C283.634871,90.5736037 277.192598,91.3713544 270.646358,90.3472153 L270.032341,90.2458652 L269.370283,90.1252863 L268.644142,89.9832087 L267.946032,89.8316458 C266.785043,89.5668879 265.637299,89.2414961 264.511806,88.8574421 L263.839252,88.619986 L263.1122,88.3477078 L262.490973,88.1013733 C259.193223,86.7564377 256.142624,84.9128392 253.327863,82.5593335 L252.740406,82.0581807 L251.48158,80.8557708 L251.020066,80.4091609 L250.557294,79.9462837 C249.414283,78.7834946 248.328221,77.5320546 247.299371,76.1915034 C249.687408,75.3670305 251.884595,75.210606 254.019189,75.6553222 C255.660406,75.9972495 257.257254,76.707021 258.83843,77.8355441 L259.203051,78.1034292 C261.278059,79.665016 263.497365,80.9187009 265.868716,81.8698977 C273.34874,84.8702867 281.097807,84.8278917 288.668558,81.7710201 L289.380685,81.4749234 L289.562424,81.3919781 C297.25193,77.8068928 302.667812,71.9827803 305.516058,64.2177639 C306.580181,61.3167018 307.166667,58.2849299 307.275382,55.1540717 L307.291566,54.4238699 L307.290852,53.7849527 L307.274599,52.9785943 C307.107591,48.1991382 305.864086,43.2747575 303.610246,38.212549 L303.313713,37.5590757 C301.279748,33.167792 298.831045,29.4706246 295.916231,26.4478843 L295.412068,25.9364446 L294.855856,25.4472339 L294.721161,25.3168898 L294.476911,25.0704729 C294.176319,24.7728898 293.88459,24.5049523 293.551803,24.2228071 L293.129555,23.8746066 L292.89766,23.6901293 L292.380346,23.2898955 C290.279383,21.6879804 288.006428,20.3921606 285.576128,19.4135176 C278.02744,16.3737818 270.213396,16.4369363 262.589226,19.5607348 L261.987286,19.8136545 L261.813837,19.8942967 C254.171352,23.4581809 248.756763,29.2922705 245.915089,37.0717495 C245.614327,37.8951285 245.35175,38.7291439 245.127443,39.5730723 C242.54424,39.9694718 239.969142,40.5719711 237.406508,41.3796227 C238.130452,36.8345963 239.782105,32.5362455 242.377259,28.4432671 C246.167317,22.4657318 251.412576,17.9391381 258.225638,14.7873415 L258.813457,14.5205526 L259.493234,14.2233431 L260.192282,13.90666 L260.77823,13.6516479 L261.38637,13.3964944 C267.670126,10.8157012 273.943948,9.96427836 280.299943,10.8232172 L280.915299,10.911679 Z" id="linc---link" fill="#2F513A" fill-rule="nonzero"></path>
        <path d="M235.436357,50.6272454 C243.670848,47.1319113 251.951539,46.1651604 260.278431,47.7269928 C268.39715,49.2497794 275.380048,52.8831659 281.227124,58.6271525 L281.674659,59.0731605 L267.047484,74.380975 L266.674151,74.0097353 C263.302918,70.714259 259.628486,68.6521758 255.650855,67.8234856 C251.525904,66.9641031 247.307721,67.4494554 242.996307,69.2795423 C236.979657,71.8334586 232.838275,76.0519772 230.572161,81.9350981 C228.306046,87.818219 228.75545,94.4878241 231.920373,101.943913 C235.094086,109.420714 239.581631,114.381832 245.383007,116.827266 C251.184383,119.272701 257.093396,119.21846 263.110046,116.664543 C267.421461,114.834456 270.703171,112.142913 272.955177,108.589913 C274.95703,105.43158 276.027819,101.734929 276.167543,97.4999609 L297.325692,97.5002636 C297.145785,105.363325 294.882132,112.623203 290.534732,119.279898 C285.905837,126.367615 279.495718,131.649983 271.304375,135.127002 C263.019832,138.643582 255.045591,139.896804 247.381653,138.886667 C239.717715,137.87653 232.861805,134.914234 226.813923,129.99978 C220.76604,125.085326 215.983809,118.485827 212.467228,110.201283 C208.95944,101.937451 207.540768,93.9285378 208.211214,86.1745441 C208.881659,78.4205503 211.515658,71.4366471 216.113211,65.2228345 C220.710765,59.009022 227.151813,54.1438256 235.436357,50.6272454 Z" id="linc---c" fill="#4EB872" fill-rule="nonzero"></path>
        <path d="M141.439432,139.84 L141.438968,82.068 L141.70451,81.7632813 C142.731131,80.6091016 143.862727,79.5112671 145.099296,78.4697778 L145.635682,78.026875 C148.530682,75.683125 151.738807,73.8320313 155.260057,72.4735938 C158.781307,71.1151563 162.236932,70.4359375 165.626932,70.4359375 C169.183807,70.4359375 172.194119,71.42125 174.657869,73.391875 C177.121619,75.3625 178.353494,79.2540625 178.353494,85.0665625 L178.353494,85.0665625 L178.353494,139.84 L199.233494,139.84 L199.233494,86.99875 C199.233494,82.31875 198.957869,77.7704688 198.406619,73.3539063 C197.855369,68.9373438 196.692401,64.976875 194.917713,61.4725 C193.143026,57.968125 190.437869,55.1776563 186.802244,53.1010938 C183.166619,51.0245313 178.276619,49.98625 172.132244,49.98625 C167.309744,49.98625 162.637244,50.7357813 158.114744,52.2348438 C153.592244,53.7339063 149.344901,55.8385938 145.372713,58.5489063 C143.386619,59.9040625 141.488768,61.3856641 139.679159,62.9937109 L139.309968,63.327 L136.267244,51.9296875 L120.562244,51.9296875 L120.562244,139.84 L141.439432,139.84 Z" id="linc---n" fill="#4EB872" fill-rule="nonzero"></path>
        <path d="M92.7765902,36.6 C96.6165902,36.6 99.7365902,35.4 102.13659,33 C104.53659,30.6 105.73659,27.48 105.73659,23.64 C105.73659,19.8 104.53659,16.65 102.13659,14.19 C99.7365902,11.73 96.6165902,10.5 92.7765902,10.5 C88.6965902,10.5 85.4865902,11.73 83.1465902,14.19 C80.8065902,16.65 79.6365902,19.8 79.6365902,23.64 C79.6365902,27.48 80.8065902,30.6 83.1465902,33 C85.4865902,35.4 88.6965902,36.6 92.7765902,36.6 Z" id="linc---i---dot" fill="#2F513A" fill-rule="nonzero"></path>
        <polygon id="linc---i" fill="#4EB872" fill-rule="nonzero" points="103.21659 138.84 103.21659 51 82.3365902 51 82.3365902 138.84"></polygon>
        <path d="M59.5377181,139.74 C61.4370931,139.74 63.3102181,139.613906 65.1570931,139.361719 C67.0039681,139.109531 68.6483431,138.730312 70.0902181,138.224063 L70.0902181,120.4125 C67.6433431,120.4125 65.5372493,119.764219 63.7719368,118.467656 C62.0066243,117.171094 61.1239681,114.54375 61.1239681,110.585625 L61.1239681,16.26 L40.5336556,16.26 L40.5336556,117.917812 C40.5336556,122.852812 41.3774056,126.92625 43.0649056,130.138125 C44.7524056,133.35 47.0272493,135.753281 49.8894368,137.347969 C52.7516243,138.942656 55.9677181,139.74 59.5377181,139.74 Z" id="linc---l" fill="#4EB872" fill-rule="nonzero"></path>
    </g>
</svg>