<?xml version="1.0" encoding="UTF-8"?>
<svg width="192px" height="192px" viewBox="0 0 192 192" version="1.1" xmlns="http://www.w3.org/2000/svg" xmlns:xlink="http://www.w3.org/1999/xlink">
    <title>linc--favicon--mono</title>
    <g id="linc--favicon--mono" stroke="none" stroke-width="1" fill="none" fill-rule="evenodd">
        <path d="M123.890107,6.57566391 L124.751322,6.7142898 L125.584879,6.86226666 L126.440357,7.02815106 C134.106638,8.58074999 140.882526,11.7441256 146.85407,16.5597638 L147.514269,17.1016363 L148.02759,17.5387558 L150.52574,19.9111235 L151.169243,20.5328402 L151.815777,21.1784809 C156.739537,26.1794751 160.904084,32.3556403 164.298885,39.7262079 L164.737319,40.6943615 L165.157957,41.655059 L165.56876,42.6263349 C168.657564,50.0633938 170.350767,57.2846382 170.664706,64.3008767 L170.697834,65.2148766 L170.768511,67.7856775 L170.740606,68.7952148 C170.529191,74.4882526 169.371866,79.9503254 167.267339,85.1608506 C166.379787,87.3842315 165.332228,89.525824 164.113484,91.6092622 L163.580652,92.4986727 L163.065772,93.3313685 L162.623062,94.0229163 L162.146331,94.7419118 C157.004083,102.355811 150.03289,108.197925 141.130212,112.322723 L140.289924,112.704393 L139.33915,113.121113 L138.325317,113.579093 L137.519553,113.930726 L136.677336,114.283791 C127.692972,117.969491 118.684535,119.085012 109.530718,117.652925 L108.672118,117.511204 L107.74634,117.342594 L106.730955,117.143923 L105.754765,116.931988 C104.131317,116.561768 102.52639,116.106762 100.952576,115.569727 L100.012122,115.237685 L98.9954621,114.856949 L98.1267803,114.512492 C93.5154314,112.631825 89.2496803,110.053862 85.3137095,106.76288 L84.4922498,106.062102 L82.7319928,104.380733 L82.086643,103.756224 L81.4395345,103.108968 C79.8412249,101.483003 78.3225491,99.7330743 76.8838759,97.8585384 C80.2231443,96.7056515 83.2955411,96.4869181 86.2804129,97.1087791 C88.5753797,97.586907 90.8083029,98.5794033 93.0193119,100.157453 L93.529174,100.532046 C96.4307236,102.715663 99.5340504,104.468731 102.849987,105.79882 C113.309545,109.99436 124.145314,109.935077 134.731739,105.660556 L135.727528,105.246514 L135.98166,105.130529 C146.734144,100.117389 154.307345,91.9733458 158.290138,81.115274 C159.778136,77.0586257 160.598238,72.8192018 160.750258,68.4412222 L160.772888,67.4201577 L160.77189,66.5267391 L160.749163,65.3991823 C160.51563,58.7159153 158.776798,51.8299957 155.62518,44.7513471 L155.210529,43.8375743 C152.36637,37.6971014 148.94227,32.5272335 144.866392,28.3004387 L144.161405,27.5852761 L143.383636,26.901197 L143.195288,26.7189327 L142.853745,26.3743601 C142.433417,25.9582401 142.025483,25.5835744 141.560136,25.1890418 L140.969694,24.7021419 L140.645427,24.4441812 L139.92205,23.8845215 C136.984207,21.6445122 133.80586,19.8325258 130.407494,18.4640579 C119.851921,14.2134977 108.925292,14.3018086 98.2641709,18.6699164 L97.4224588,19.0235821 L97.1799189,19.1363467 C86.4931876,24.1198403 78.9217935,32.2778353 74.9481905,43.1561305 C74.5276249,44.3074878 74.1604549,45.4737183 73.8467985,46.6538104 C70.2346233,47.2081087 66.6337809,48.0506028 63.0503681,49.1799679 C64.0626821,42.8245115 66.372241,36.8139897 70.0011285,31.0906465 C75.3008885,22.732067 82.6355029,16.4023857 92.1624258,11.9951273 L92.9843918,11.6220678 L93.9349457,11.2064702 L94.9124475,10.7636421 L95.7317977,10.4070504 L96.5821787,10.0502611 C105.368956,6.44145518 114.141844,5.25088323 123.029635,6.45196494 L123.890107,6.57566391 Z" id="linc---link" fill="#FFFFFF" fill-rule="nonzero"></path>
        <path d="M60.295442,62.1112157 C71.8099955,57.2235777 83.3891521,55.8717389 95.0329118,58.0556993 C106.385578,60.1850607 116.149988,65.2657418 124.326143,73.2977426 L124.951945,73.92141 L104.498297,95.3268185 L103.976253,94.807702 C99.2621499,90.1995318 94.1240737,87.3160546 88.562024,86.1572704 C82.7939725,84.9555684 76.895552,85.634252 70.8667625,88.1933213 C62.4534879,91.7645445 56.6624605,97.6634345 53.4936804,105.889991 C50.3249002,114.116548 50.9533163,123.442871 55.3789285,133.86896 C59.8168342,144.324011 66.0919122,151.261301 74.2041627,154.68083 C82.3164132,158.10036 90.5791757,158.024513 98.9924504,154.45329 C105.02124,151.89422 109.610161,148.130549 112.759213,143.162275 C115.558468,138.745876 117.055787,133.57673 117.251167,127.654839 L146.837287,127.655262 C146.585717,138.650434 143.420378,148.802154 137.34127,158.110424 C130.868537,168.021407 121.905061,175.407912 110.450844,180.269939 C98.8663007,185.187285 87.7156638,186.939706 76.9989335,185.527199 C66.2822033,184.114692 56.6953639,179.972419 48.2384155,173.100379 C39.7814671,166.22834 33.0943194,157.000049 28.1769725,145.415506 C23.2719189,133.859923 21.2881448,122.660803 22.2256502,111.818145 C23.1631555,100.975486 26.8463613,91.2096702 33.2752675,82.5206966 C39.7041737,73.8317229 48.7108986,67.0285627 60.295442,62.1112157 Z" id="linc---c" fill="#FFFFFF" fill-rule="nonzero"></path>
    </g>
</svg>