<?xml version="1.0" encoding="UTF-8"?>
<svg width="350px" height="350px" viewBox="0 0 350 350" version="1.1" xmlns="http://www.w3.org/2000/svg" xmlns:xlink="http://www.w3.org/1999/xlink">
    <title>linc--with-background</title>
    <g id="linc--with-background" stroke="none" stroke-width="1" fill="none" fill-rule="evenodd">
        <path d="M175,0 C271.649831,0 350,78.3501688 350,175 C350,271.649831 271.649831,350 175,350 C78.3501688,350 0,271.649831 0,175 C0,78.3501688 78.3501688,0 175,0 Z M175.648589,149.98625 C170.826089,149.98625 166.153589,150.735781 161.631089,152.234844 C157.108589,153.733906 152.861245,155.838594 148.889058,158.548906 C146.902964,159.904063 145.005112,161.385664 143.195503,162.993711 L142.826312,163.327 L139.783589,151.929688 L124.078589,151.929688 L124.078589,239.84 L144.955776,239.84 L144.955312,182.068 L145.220854,181.763281 C146.247476,180.609102 147.379071,179.511267 148.615641,178.469778 L149.152026,178.026875 C152.047026,175.683125 155.255151,173.832031 158.776401,172.473594 C162.297651,171.115156 165.753276,170.435938 169.143276,170.435938 C172.700151,170.435938 175.710464,171.42125 178.174214,173.391875 C180.571376,175.30924 181.802351,179.045111 181.867139,184.599488 L181.869839,185.066563 L181.869839,239.84 L202.749839,239.84 L202.749839,186.99875 C202.749839,182.31875 202.474214,177.770469 201.922964,173.353906 C201.371714,168.937344 200.208745,164.976875 198.434058,161.4725 C196.65937,157.968125 193.954214,155.177656 190.318589,153.101094 C186.682964,151.024531 181.792964,149.98625 175.648589,149.98625 Z M64.6403125,116.26 L44.05,116.26 L44.05,217.917812 C44.05,222.852812 44.89375,226.92625 46.58125,230.138125 C48.26875,233.35 50.5435938,235.753281 53.4057813,237.347969 C56.2679688,238.942656 59.4840625,239.74 63.0540625,239.74 C64.9534375,239.74 66.8265625,239.613906 68.6734375,239.361719 C70.5203125,239.109531 72.1646875,238.730312 73.6065625,238.224063 L73.6065625,220.4125 C71.1596875,220.4125 69.0535938,219.764219 67.2882813,218.467656 C65.5229688,217.171094 64.6403125,214.54375 64.6403125,210.585625 L64.6403125,116.26 Z M263.794775,147.726993 C255.467884,146.16516 247.187192,147.131911 238.952701,150.627245 C230.668157,154.143826 224.227109,159.009022 219.629556,165.222835 C215.032003,171.436647 212.398003,178.42055 211.727558,186.174544 C211.057113,193.928538 212.475784,201.937451 215.983573,210.201283 C219.500153,218.485827 224.282384,225.085326 230.330267,229.99978 C236.37815,234.914234 243.23406,237.87653 250.897998,238.886667 C258.561935,239.896804 266.536176,238.643582 274.82072,235.127002 C283.012062,231.649983 289.422181,226.367615 294.051077,219.279898 C298.398476,212.623203 300.66213,205.363325 300.842037,197.500264 L300.842037,197.500264 L279.683887,197.499961 C279.544163,201.734929 278.473374,205.43158 276.471521,208.589913 C274.219515,212.142913 270.937805,214.834456 266.62639,216.664543 C260.609741,219.21846 254.700728,219.272701 248.899352,216.827266 C243.097975,214.381832 238.610431,209.420714 235.436717,201.943913 C232.271795,194.487824 231.822391,187.818219 234.088505,181.935098 C236.354619,176.051977 240.496001,171.833459 246.512651,169.279542 C250.824066,167.449455 255.042248,166.964103 259.167199,167.823486 C263.144831,168.652176 266.819263,170.714259 270.190495,174.009735 L270.190495,174.009735 L270.563829,174.380975 L285.191004,159.073161 L284.743469,158.627153 C278.896392,152.883166 271.913494,149.249779 263.794775,147.726993 Z M106.732935,151 L85.8529346,151 L85.8529346,238.84 L106.732935,238.84 L106.732935,151 Z M283.816287,110.823217 C277.460293,109.964278 271.18647,110.815701 264.902714,113.396494 L264.902714,113.396494 L264.294575,113.651648 L263.708627,113.90666 L263.009578,114.223343 L262.329801,114.520553 L261.741982,114.787342 C254.928921,117.939138 249.683662,122.465732 245.893603,128.443267 C243.298449,132.536246 241.646797,136.834596 240.922853,141.379623 C243.485486,140.571971 246.060584,139.969472 248.643787,139.573072 C248.868094,138.729144 249.130672,137.895128 249.431434,137.071749 C252.273107,129.292271 257.687696,123.458181 265.330181,119.894297 L265.330181,119.894297 L265.50363,119.813654 L266.10557,119.560735 C273.72974,116.436936 281.543785,116.373782 289.092472,119.413518 C291.522772,120.392161 293.795728,121.68798 295.89669,123.289895 L295.89669,123.289895 L296.414004,123.690129 L296.6459,123.874607 L297.068147,124.222807 C297.400934,124.504952 297.692663,124.77289 297.993255,125.070473 L297.993255,125.070473 L298.237506,125.31689 L298.372201,125.447234 L298.928412,125.936445 L299.432576,126.447884 C302.347389,129.470625 304.796092,133.167792 306.830058,137.559076 L306.830058,137.559076 L307.12659,138.212549 C309.380431,143.274757 310.623936,148.199138 310.790944,152.978594 L310.790944,152.978594 L310.807197,153.784953 L310.80791,154.42387 L310.791727,155.154072 C310.683011,158.28493 310.096526,161.316702 309.032402,164.217764 C306.184156,171.98278 300.768275,177.806893 293.078768,181.391978 L293.078768,181.391978 L292.897029,181.474923 L292.184903,181.77102 C284.614151,184.827892 276.865085,184.870287 269.38506,181.869898 C267.013709,180.918701 264.794403,179.665016 262.719396,178.103429 L262.719396,178.103429 L262.354774,177.835544 C260.773598,176.707021 259.176751,175.99725 257.535533,175.655322 C255.400939,175.210606 253.203752,175.36703 250.815716,176.191503 C251.844565,177.532055 252.930627,178.783495 254.073639,179.946284 L254.073639,179.946284 L254.53641,180.409161 L254.997924,180.855771 L256.25675,182.058181 L256.844207,182.559333 C259.658968,184.912839 262.709568,186.756438 266.007317,188.101373 L266.007317,188.101373 L266.628544,188.347708 L267.355596,188.619986 L268.02815,188.857442 C269.153644,189.241496 270.301388,189.566888 271.462376,189.831646 L271.462376,189.831646 L272.160487,189.983209 L272.886627,190.125286 L273.548686,190.245865 L274.162703,190.347215 C280.708942,191.371354 287.151215,190.573604 293.576273,187.937821 L293.576273,187.937821 L294.178574,187.685331 L294.754806,187.433864 L295.479836,187.106346 L296.15977,186.808334 L296.760692,186.535387 C303.127333,183.585588 308.112696,179.407672 311.790111,173.962686 L311.790111,173.962686 L312.131039,173.448505 L312.447638,172.953954 L312.815848,172.358461 L313.196896,171.72241 C314.068466,170.232465 314.817615,168.700932 315.452337,167.110908 C316.957363,163.384665 317.78501,159.478531 317.936201,155.407225 L317.936201,155.407225 L317.956157,154.685267 L317.905613,152.84679 L317.881922,152.193155 C317.657412,147.175578 316.446539,142.011394 314.237619,136.692873 L314.237619,136.692873 L313.943838,135.998277 L313.643024,135.311246 L313.329484,134.618883 C310.901734,129.347912 307.923509,124.931103 304.402343,121.354704 L304.402343,121.354704 L303.939982,120.892982 L303.479789,120.448369 L301.693267,118.751799 L301.326172,118.439199 L300.854038,118.051685 C296.583563,114.607841 291.73787,112.345592 286.255423,111.23527 L286.255423,111.23527 L285.643639,111.116639 L285.047531,111.010816 L284.431643,110.911679 Z M96.2929346,110.5 C92.2129346,110.5 89.0029346,111.73 86.6629346,114.19 C84.3229346,116.65 83.1529346,119.8 83.1529346,123.64 C83.1529346,127.48 84.3229346,130.6 86.6629346,133 C89.0029346,135.4 92.2129346,136.6 96.2929346,136.6 C100.132935,136.6 103.252935,135.4 105.652935,133 C108.052935,130.6 109.252935,127.48 109.252935,123.64 C109.252935,119.8 108.052935,116.65 105.652935,114.19 C103.252935,111.73 100.132935,110.5 96.2929346,110.5 Z" id="linc---with-background" fill="#4EB872"></path>
    </g>
</svg>