<?xml version="1.0" encoding="UTF-8"?>
<svg width="350px" height="350px" viewBox="0 0 350 350" version="1.1" xmlns="http://www.w3.org/2000/svg" xmlns:xlink="http://www.w3.org/1999/xlink">
    <title>linc - background</title>
    <defs>
        <filter color-interpolation-filters="auto" id="filter-1">
            <feColorMatrix in="SourceGraphic" type="matrix" values="0 0 0 0 1.000000 0 0 0 0 1.000000 0 0 0 0 1.000000 0 0 0 1.000000 0"></feColorMatrix>
        </filter>
        <filter color-interpolation-filters="auto" id="filter-2">
            <feColorMatrix in="SourceGraphic" type="matrix" values="0 0 0 0 1.000000 0 0 0 0 1.000000 0 0 0 0 1.000000 0 0 0 1.000000 0"></feColorMatrix>
        </filter>
    </defs>
    <g id="Page-1" stroke="none" stroke-width="1" fill="none" fill-rule="evenodd">
        <g id="Final-Copy-4" transform="translate(-125.000000, -125.000000)">
            <g id="linc---background" transform="translate(125.000000, 125.000000)">
                <circle id="linc---circle-background" fill="#4EB872" cx="175" cy="175" r="175"></circle>
                <g id="linc---green" transform="translate(44.046922, 110.380000)">
                    <g id="linc---body" transform="translate(0.000000, 5.760000)" filter="url(#filter-1)">
                        <g>
                            <g id="Group" fill="#333333" fill-rule="nonzero">
                                <g id="l">
                                    <path d="M19.0040625,123.48 C20.9034375,123.48 22.7765625,123.353906 24.6234375,123.101719 C26.4703125,122.849531 28.1146875,122.470312 29.5565625,121.964062 L29.5565625,104.1525 C27.1096875,104.1525 25.0035937,103.504219 23.2382812,102.207656 C21.4729687,100.911094 20.5903125,98.28375 20.5903125,94.325625 L20.5903125,0 L0,0 L0,101.657812 C0,106.592812 0.84375,110.66625 2.53125,113.878125 C4.21875,117.09 6.49359375,119.493281 9.35578125,121.087969 C12.2179687,122.682656 15.4340625,123.48 19.0040625,123.48 Z"></path>
                                </g>
                            </g>
                            <g id="Group" transform="translate(41.802935, 34.740000)" fill="#333333" fill-rule="nonzero">
                                <g id="i">
                                    <polygon points="20.88 87.84 20.88 0 0 0 0 87.84"></polygon>
                                </g>
                            </g>
                            <g id="Group" transform="translate(80.028589, 32.726250)" fill="#333333" fill-rule="nonzero">
                                <g id="n">
                                    <path d="M20.8771875,89.85375 L20.8767236,32.08175 L21.1422656,31.7770312 C22.1688867,30.6228516 23.3004822,29.5250171 24.537052,28.4835278 L25.0734375,28.040625 C27.9684375,25.696875 31.1765625,23.8457812 34.6978125,22.4873437 C38.2190625,21.1289062 41.6746875,20.4496875 45.0646875,20.4496875 C48.6215625,20.4496875 51.631875,21.435 54.095625,23.405625 C56.559375,25.37625 57.79125,29.2678125 57.79125,35.0803125 L57.79125,35.0803125 L57.79125,89.85375 L78.67125,89.85375 L78.67125,37.0125 C78.67125,32.3325 78.395625,27.7842187 77.844375,23.3676562 C77.293125,18.9510937 76.1301562,14.990625 74.3554688,11.48625 C72.5807813,7.981875 69.875625,5.19140625 66.24,3.11484375 C62.604375,1.03828125 57.714375,0 51.57,0 C46.7475,0 42.075,0.74953125 37.5525,2.24859375 C33.03,3.74765625 28.7826563,5.85234375 24.8104687,8.56265625 C22.824375,9.9178125 20.9265234,11.3994141 19.1169141,13.0074609 L18.7477236,13.34075 L15.705,1.9434375 L0,1.9434375 L0,89.85375 L20.8771875,89.85375 Z"></path>
                                </g>
                            </g>
                            <g id="Group" transform="translate(167.516187, 30.743469)" fill="#333333" fill-rule="nonzero">
                                <g id="c">
                                    <path d="M27.3865141,3.6237765 C35.6210053,0.128442347 43.9016967,-0.838308536 52.2285882,0.72352385 C60.3473074,2.24631043 67.3302053,5.879697 73.1772818,11.6236836 L73.6248167,12.0696916 L58.9976419,27.3775061 L58.6243082,27.0062664 C55.2530757,23.7107901 51.5786438,21.6487069 47.6010124,20.8200166 C43.4760613,19.9606342 39.2578785,20.4459864 34.9464639,22.2760733 C28.9298141,24.8299897 24.7884321,29.0485083 22.522318,34.9316292 C20.2562038,40.8147501 20.7056079,47.4843552 23.87053,54.9404445 C27.0442436,62.4172451 31.5317884,67.3783627 37.3331645,69.8237971 C43.1345406,72.2692316 49.0435536,72.2149906 55.0602035,69.6610743 C59.3716181,67.8309874 62.6533283,65.1394439 64.9053341,61.5864438 C66.9071874,58.4281106 67.9779761,54.7314599 68.1177003,50.4964919 L89.2758496,50.4967947 C89.0959426,58.3598563 86.8322892,65.6197343 82.4848895,72.2764287 C77.8559942,79.3641464 71.4458753,84.6465145 63.2545328,88.1235331 C54.9699891,91.6401133 46.9957483,92.8933349 39.3318105,91.883198 C31.6678727,90.8730611 24.8119626,87.9107655 18.76408,82.9963112 C12.7161974,78.0818569 7.93396603,71.4823579 4.41738587,63.1978142 C0.909597166,54.9339819 -0.509074476,46.9250689 0.161370947,39.1710751 C0.831816369,31.4170813 3.46581566,24.4331782 8.06336882,18.2193656 C12.660922,12.005553 19.1019704,7.14035665 27.3865141,3.6237765 Z"></path>
                                </g>
                            </g>
                        </g>
                    </g>
                    <g id="linc---accents" transform="translate(39.102935, 0.000000)" filter="url(#filter-2)">
                        <g>
                            <g id="Group" transform="translate(0.000000, 0.000000)" fill="#333333" fill-rule="nonzero">
                                <g id="dot">
                                    <path d="M13.14,26.1 C16.98,26.1 20.1,24.9 22.5,22.5 C24.9,20.1 26.1,16.98 26.1,13.14 C26.1,9.3 24.9,6.15 22.5,3.69 C20.1,1.23 16.98,0 13.14,0 C9.06,0 5.85,1.23 3.51,3.69 C1.17,6.15 0,9.3 0,13.14 C0,16.98 1.17,20.1 3.51,22.5 C5.85,24.9 9.06,26.1 13.14,26.1 Z"></path>
                                </g>
                            </g>
                            <g id="Group" transform="translate(157.769918, 0.000000)" fill="#333333" fill-rule="nonzero">
                                <g id="link">
                                    <path d="M43.5087905,0.411678958 L44.124678,0.510815558 L44.720786,0.616639395 L45.3325702,0.735269575 C50.8150169,1.8455916 55.6607102,4.10784076 59.9311858,7.55168515 L60.4033191,7.93919856 L60.7704143,8.25179922 L62.5569359,9.94836881 L63.0171288,10.3929819 L63.4794899,10.8547039 C67.0006562,14.4311033 69.978881,18.8479118 72.4066309,24.1188826 L72.7201716,24.8112457 L73.0209856,25.4982767 L73.3147666,26.1928727 C75.5236867,31.5113938 76.7345597,36.675578 76.9590695,41.6931546 L76.9827606,42.3467903 L77.0333043,44.1852669 L77.0133487,44.9072251 C76.8621574,48.9785311 76.0345108,52.8846652 74.5294842,56.6109082 C73.8947625,58.2009317 73.1456137,59.7324652 72.2740437,61.2224104 L71.8929952,61.8584613 L71.5247855,62.4539536 L71.2081867,62.9485054 L70.8672587,63.4626862 C67.189843,68.9076722 62.2044801,73.0855882 55.8378392,76.035387 L55.2369176,76.3083339 L54.5569837,76.6063456 L53.8319534,76.9338643 L53.2557215,77.1853306 L52.6534201,77.4378206 C46.2283624,80.0736037 39.7860896,80.8713544 33.2398502,79.8472153 L32.625833,79.7458652 L31.9637744,79.6252863 L31.2376342,79.4832087 L30.5395238,79.3316458 C29.3785352,79.0668879 28.2307911,78.7414961 27.1052976,78.3574421 L26.4327437,78.119986 L25.7056916,77.8477078 L25.0844645,77.6013733 C21.7867151,76.2564377 18.7361157,74.4128392 15.9213546,72.0593335 L15.3338978,71.5581807 L14.0750717,70.3557708 L13.6135577,69.9091609 L13.150786,69.4462837 C12.0077746,68.2834946 10.9217123,67.0320546 9.89286287,65.6915034 C12.2808995,64.8670305 14.4780863,64.710606 16.6126806,65.1553222 C18.2538979,65.4972495 19.8507455,66.207021 21.4319213,67.3355441 L21.796543,67.6034292 C23.8715504,69.165016 26.0908564,70.4187009 28.4622075,71.3698977 C35.9422321,74.3702867 43.6912987,74.3278917 51.26205,71.2710201 L51.9741765,70.9749234 L52.1559158,70.8919781 C59.8454223,67.3068928 65.2613037,61.4827803 68.1095494,53.7177639 C69.173673,50.8167018 69.7601586,47.7849299 69.8688739,44.6540717 L69.8850577,43.9238699 L69.8843441,43.2849527 L69.8680911,42.4785943 C69.701083,37.6991382 68.457578,32.7747575 66.2037376,27.712549 L65.907205,27.0590757 C63.8732394,22.667792 61.4245363,18.9706246 58.509723,15.9478843 L58.0055597,15.4364446 L57.449348,14.9472339 L57.3146531,14.8168898 L57.0704027,14.5704729 C56.7698106,14.2728898 56.4780816,14.0049523 56.1452944,13.7228071 L55.723047,13.3746066 L55.4911518,13.1901293 L55.4911518,13.1901293 L54.9738373,12.7898955 C52.8728751,11.1879804 50.5999193,9.89216059 48.1696193,8.91351762 C40.6209319,5.87378178 32.8068875,5.93693626 25.1827177,9.0607348 L24.5807777,9.3136545 L24.4073283,9.39429668 C16.7648438,12.9581809 11.3502545,18.7922705 8.50858124,26.5717495 C8.20781891,27.3951285 7.94524182,28.2291439 7.72093434,29.0730723 C5.13773165,29.4694718 2.56263353,30.0719711 0,30.8796227 C0.723943897,26.3345963 2.37559646,22.0362455 4.97075073,17.9432671 C8.7608089,11.9657318 14.0060681,7.4391381 20.8191298,4.28734153 L21.4069487,4.02055261 L22.0867256,3.72334311 L22.785774,3.40666003 L23.3717222,3.15164789 L23.9798617,2.89649441 C30.2636173,0.315701236 36.53744,-0.535721638 42.8934347,0.323217168 L43.5087905,0.411678958 Z"></path>
                                </g>
                            </g>
                        </g>
                    </g>
                </g>
            </g>
        </g>
    </g>
</svg>